<svg width="35" height="35" viewBox="0 0 35 35" fill="none" xmlns="http://www.w3.org/2000/svg">
<path d="M0 32.4995H35V34.9995H0V32.4995ZM31.25 11.2495C31.5815 11.2495 31.8995 11.1178 32.1339 10.8834C32.3683 10.6489 32.5 10.331 32.5 9.99947V6.24947C32.4999 5.99258 32.4206 5.74196 32.273 5.53171C32.1254 5.32147 31.9166 5.16181 31.675 5.07447L17.925 0.0744682C17.6504 -0.0248227 17.3496 -0.0248227 17.075 0.0744682L3.325 5.07447C3.08341 5.16181 2.8746 5.32147 2.72698 5.53171C2.57937 5.74196 2.50011 5.99258 2.5 6.24947V9.99947C2.5 10.331 2.6317 10.6489 2.86612 10.8834C3.10054 11.1178 3.41848 11.2495 3.75 11.2495H5V27.4995H2.5V29.9995H32.5V27.4995H30V11.2495H31.25ZM5 7.12447L17.5 2.57447L30 7.12447V8.74947H5V7.12447ZM20 27.4995H15V11.2495H20V27.4995ZM7.5 11.2495H12.5V27.4995H7.5V11.2495ZM27.5 27.4995H22.5V11.2495H27.5V27.4995Z" fill="#F8F8F8"/>
</svg>
